<?xml version="1.0" encoding="utf-8"?>
<!-- Generator: Adobe Illustrator 24.3.0, SVG Export Plug-In . SVG Version: 6.00 Build 0)  -->
<svg version="1.1" id="Layer_1" xmlns="http://www.w3.org/2000/svg" xmlns:xlink="http://www.w3.org/1999/xlink" x="0px" y="0px"
	 viewBox="0 0 174 32" style="enable-background:new 0 0 174 32;" xml:space="preserve">
<style type="text/css">
	.st0{clip-path:url(#SVGID_2_);}
	.st1{fill:#FF6800;}
	.st2{fill:#FFBDBD;}
	.st3{fill:#FFFFFF;}
</style>
<g>
	<defs>
		<rect id="SVGID_1_" width="174" height="32"/>
	</defs>
	<clipPath id="SVGID_2_">
		<use xlink:href="#SVGID_1_"  style="overflow:visible;"/>
	</clipPath>
	<g class="st0">
		<path class="st1" d="M163.1,25.2c-0.6,0-1.1-0.2-1.5-0.5c-0.4-0.4-0.6-0.8-0.6-1.3c0-0.5,0.2-1,0.6-1.3c0.4-0.4,0.9-0.5,1.5-0.5
			c0.6,0,1.1,0.2,1.4,0.5c0.4,0.4,0.6,0.8,0.6,1.3c0,0.5-0.2,1-0.6,1.3C164.2,25,163.7,25.2,163.1,25.2z"/>
		<rect class="st2" width="16" height="32"/>
		<circle class="st3" cx="32" cy="16" r="16"/>
		<g>
			<path class="st3" d="M60,24.7c-0.9-0.3-1.5-0.9-2-1.6c-0.5-0.7-0.8-1.5-0.8-2.5H61c0.1,0.5,0.2,1,0.6,1.3
				c0.3,0.3,0.7,0.4,1.3,0.4c0.5,0,1-0.1,1.3-0.4c0.3-0.2,0.5-0.6,0.5-1c0-0.4-0.1-0.7-0.4-0.9c-0.2-0.2-0.5-0.4-0.9-0.6
				c-0.4-0.2-0.9-0.3-1.5-0.5c-1-0.3-1.7-0.6-2.3-0.9c-0.6-0.3-1.1-0.7-1.6-1.3c-0.4-0.6-0.7-1.3-0.7-2.2c0-1.4,0.5-2.4,1.5-3.2
				c1-0.8,2.3-1.2,3.9-1.2c1.6,0,2.9,0.4,3.9,1.2c1,0.8,1.5,1.9,1.6,3.2h-3.9c0-0.5-0.2-0.9-0.5-1.1c-0.3-0.3-0.7-0.4-1.2-0.4
				c-0.4,0-0.8,0.1-1,0.3c-0.3,0.2-0.4,0.6-0.4,1c0,0.5,0.2,0.8,0.7,1.1c0.4,0.3,1.1,0.6,2.1,0.9c1,0.3,1.7,0.6,2.3,0.9
				s1.1,0.7,1.5,1.3s0.7,1.3,0.7,2.2c0,0.8-0.2,1.6-0.6,2.3c-0.4,0.7-1,1.2-1.9,1.6c-0.8,0.4-1.8,0.6-2.9,0.6
				C61.8,25.3,60.8,25.1,60,24.7z"/>
			<path class="st3" d="M86.5,24.3c-1.2-0.6-2.1-1.5-2.8-2.7c-0.7-1.2-1-2.5-1-3.9c0-1.4,0.3-2.7,1-3.9c0.7-1.1,1.6-2,2.8-2.7
				c1.2-0.6,2.4-1,3.8-1c1.4,0,2.7,0.3,3.8,1c1.2,0.6,2.1,1.5,2.7,2.7s1,2.4,1,3.9c0,1.4-0.3,2.7-1,3.9c-0.7,1.2-1.6,2.1-2.7,2.7
				c-1.1,0.6-2.4,1-3.8,1C88.9,25.3,87.6,25,86.5,24.3z M93.1,20.8c0.7-0.8,1.1-1.8,1.1-3.1c0-1.3-0.4-2.3-1.1-3.1
				c-0.7-0.8-1.6-1.2-2.8-1.2c-1.2,0-2.1,0.4-2.8,1.2s-1.1,1.8-1.1,3.1c0,1.3,0.4,2.3,1.1,3.1c0.7,0.8,1.7,1.2,2.8,1.2
				C91.5,22,92.4,21.6,93.1,20.8z"/>
			<path class="st3" d="M116.3,22.4h4.7v2.8h-8.3V10.4h3.6V22.4z"/>
			<path class="st3" d="M138.7,24.3c-1.2-0.6-2.1-1.5-2.8-2.7c-0.7-1.2-1-2.5-1-3.9c0-1.4,0.3-2.7,1-3.9c0.7-1.1,1.6-2,2.8-2.7
				c1.2-0.6,2.4-1,3.8-1c1.4,0,2.7,0.3,3.8,1c1.2,0.6,2.1,1.5,2.7,2.7s1,2.4,1,3.9c0,1.4-0.3,2.7-1,3.9c-0.7,1.2-1.6,2.1-2.7,2.7
				c-1.1,0.6-2.4,1-3.8,1C141.1,25.3,139.9,25,138.7,24.3z M145.3,20.8c0.7-0.8,1.1-1.8,1.1-3.1c0-1.3-0.4-2.3-1.1-3.1
				c-0.7-0.8-1.6-1.2-2.8-1.2c-1.2,0-2.1,0.4-2.8,1.2s-1.1,1.8-1.1,3.1c0,1.3,0.4,2.3,1.1,3.1c0.7,0.8,1.7,1.2,2.8,1.2
				C143.7,22,144.6,21.6,145.3,20.8z"/>
		</g>
	</g>
</g>
</svg>
